<svg width="30" height="33" viewBox="0 0 30 33" fill="none" xmlns="http://www.w3.org/2000/svg">
<path d="M13.0256 3.2329C13.1219 3.0294 13.2181 2.8314 13.3171 2.6378C13.3441 2.5872 13.4062 2.45135 13.4876 2.27315C13.624 1.9745 13.9716 1.2111 14.1185 0.9845C14.2483 0.88385 14.3319 0.72655 14.3319 0.55C14.3319 0.24585 14.086 0 13.7819 0C13.5624 0 13.0471 0 10.5963 1.95085C5.82447 5.74475 0.719917 12.1264 0.0725669 17.831C-0.234883 20.5436 0.435567 22.9548 2.06577 24.9991C4.07987 27.5242 6.81612 28.5736 9.48472 28.5736C11.2871 28.5736 13.0581 28.0935 14.5557 27.2674C15.4363 30.5844 18.5025 33 21.9989 33C26.2449 33 29.6989 29.546 29.6989 25.3C29.6989 21.054 26.2449 17.6 21.9989 17.6C21.1596 17.6 20.3395 17.7364 19.5508 18.0009C19.4089 16.8509 19.0745 15.7333 18.7456 14.6465C18.6197 14.2312 18.4948 13.8176 18.3832 13.409C18.0851 12.3024 17.9547 11.3976 17.9729 10.5611C17.9839 10.0831 18.0427 9.6283 18.1483 9.2103C18.2055 8.98645 18.3062 8.76095 18.4123 8.5217C18.5218 8.2775 18.6345 8.0245 18.7115 7.7484C18.7533 7.59605 18.728 7.43325 18.6417 7.3007C18.5553 7.16815 18.4162 7.0796 18.2594 7.05705C17.0186 6.8805 15.7778 7.5955 15.032 8.3237C14.4424 8.89735 14.1416 9.6129 13.8512 10.3048C13.7978 10.4307 13.7456 10.5567 13.6933 10.6755C13.673 10.7206 13.6323 10.802 13.5822 10.9005C13.5701 10.8862 13.5575 10.8713 13.5448 10.8565C13.2676 10.5369 12.8485 10.0534 12.7886 9.97095C11.7029 8.33415 11.7276 6.19025 12.8804 3.5563C12.9261 3.44905 12.9728 3.3418 13.0256 3.2329ZM9.33567 27.3213C8.53872 27.3097 7.80447 26.9726 7.26932 26.3725C5.10397 23.9459 5.49337 20.2768 6.77157 17.8948C7.18462 17.1237 7.73792 16.3587 8.27252 15.6195C8.41167 15.4275 8.55247 15.2328 8.69217 15.0359C9.17177 15.967 9.66347 16.8234 10.3889 17.7062L10.6056 17.9685C11.3773 18.9018 12.1759 19.8676 12.5746 20.9886C13.1983 22.7386 12.7787 25.1427 11.6396 26.3467C11.0511 26.9692 10.1986 27.3141 9.33567 27.3213ZM28.5989 25.3C28.5989 28.9394 25.6382 31.9 21.9989 31.9C18.7704 31.9 15.9654 29.4998 15.4753 26.3159C15.4247 25.9886 15.3989 25.6471 15.3989 25.3C15.3989 25.1378 15.4049 24.9766 15.4165 24.8165C15.4517 24.3358 15.5391 23.8661 15.6744 23.414C16.17 21.7553 17.3068 20.3324 18.8589 19.4931C18.9997 19.4172 19.1438 19.3457 19.2912 19.2792C20.1503 18.8947 21.0611 18.7 21.9989 18.7C25.6382 18.7 28.5989 21.6607 28.5989 25.3ZM12.3409 2.13015C12.2336 2.33915 12.1319 2.54815 12.0318 2.75935C11.9746 2.8776 11.9234 2.9964 11.853 3.157C10.5781 6.07145 10.5836 8.63775 11.8739 10.5826C11.9427 10.6848 12.1434 10.9197 12.7121 11.5764C12.9481 11.8486 13.1626 12.0956 13.2286 12.1792C13.3017 12.2886 13.4134 12.3723 13.5476 12.4069C13.7885 12.4702 14.0431 12.3635 14.1663 12.1451C14.2714 11.9587 14.6041 11.3278 14.6971 11.1232C14.7537 10.994 14.8087 10.8625 14.8643 10.7311C15.1239 10.1134 15.3692 9.5293 15.7987 9.11185C16.1771 8.7428 16.7497 8.35175 17.3525 8.19775C17.2496 8.4304 17.1495 8.6724 17.0813 8.9408C16.9554 9.4391 16.885 9.97645 16.8718 10.538C16.8514 11.4824 16.9939 12.4861 17.32 13.6983C17.4355 14.1191 17.5631 14.5415 17.6918 14.9661C18.0367 16.1062 18.392 17.2816 18.4937 18.4426C18.4662 18.4564 18.4409 18.4728 18.4134 18.4872C18.337 18.5273 18.2627 18.5702 18.1879 18.6126C18.1038 18.6604 18.0196 18.7088 17.9377 18.76C17.8651 18.8051 17.7941 18.8524 17.7232 18.8997C17.6429 18.953 17.5637 19.0075 17.4856 19.0641C17.4168 19.1141 17.3497 19.1653 17.2826 19.217C17.2067 19.2759 17.1319 19.3358 17.0582 19.3974C16.9939 19.4513 16.9306 19.5063 16.8685 19.5624C16.797 19.6268 16.7266 19.6922 16.6573 19.7588C16.5973 19.8165 16.5385 19.8753 16.4807 19.9347C16.4136 20.0035 16.3487 20.0739 16.2844 20.1448C16.2288 20.2064 16.1738 20.2686 16.1205 20.3324C16.0589 20.4056 15.9989 20.4804 15.9401 20.5557C15.8889 20.6206 15.8383 20.6861 15.7899 20.7532C15.7327 20.8307 15.6783 20.9105 15.6244 20.9902C15.5787 21.0579 15.5325 21.1255 15.4891 21.1948C15.4374 21.2768 15.3884 21.3609 15.3395 21.4451C15.2988 21.5155 15.2575 21.5853 15.219 21.6568C15.1728 21.7432 15.1294 21.8312 15.0865 21.9192C15.0513 21.9918 15.015 22.0633 14.982 22.137C14.9413 22.2271 14.9044 22.319 14.867 22.4109C14.8368 22.4851 14.8054 22.5583 14.7779 22.6336C14.7427 22.7282 14.7125 22.8245 14.6811 22.9202C14.6569 22.995 14.6311 23.0687 14.6085 23.1446C14.5794 23.2441 14.5552 23.3453 14.5299 23.4465C14.5112 23.5208 14.4908 23.5939 14.4743 23.6687C14.4512 23.7754 14.4336 23.8837 14.4149 23.9916C14.4028 24.0625 14.388 24.1324 14.3775 24.2038C14.3599 24.3254 14.3489 24.4486 14.3368 24.5713C14.3313 24.6301 14.3225 24.689 14.3181 24.7484C14.306 24.9304 14.2989 25.1147 14.2989 25.3C14.2989 25.548 14.3143 25.7928 14.3368 26.0348C14.3396 26.0639 14.3385 26.0936 14.3412 26.1228C13.7951 26.4545 13.1994 26.7262 12.5768 26.9423C13.8875 25.4067 14.3456 22.6831 13.6108 20.6201C13.1466 19.3166 12.2859 18.2749 11.4526 17.2678L11.2381 17.0082C10.3807 15.9649 9.85982 14.9215 9.25592 13.7132C9.16792 13.5372 8.99247 13.4216 8.79612 13.4101C8.60307 13.3991 8.41167 13.4926 8.30332 13.6576C8.01842 14.0927 7.70877 14.5205 7.38042 14.9748C6.82382 15.7432 6.24852 16.5385 5.80082 17.3745C4.39337 19.998 3.96602 24.0174 6.22762 26.8312C5.01432 26.3263 3.87747 25.5074 2.92542 24.3133C1.48442 22.506 0.892067 20.3665 1.16542 17.9553C1.77702 12.5637 6.68632 6.4647 11.2937 2.80115C11.7381 2.4475 12.1165 2.16205 12.4338 1.9327C12.3915 2.02565 12.3596 2.09605 12.3409 2.13015Z" fill="#3E4348"/>
<path d="M15.5956 15.6283C15.8503 16.4693 16.0906 17.2635 16.2254 18.0214L17.3083 17.83C17.1631 17.0077 16.9019 16.1442 16.6489 15.3093C16.5152 14.8671 16.3821 14.4266 16.2628 13.9877C16.1407 13.5422 16.0444 13.1286 15.968 12.7227L14.8872 12.9256C14.9686 13.3612 15.072 13.8034 15.2013 14.277C15.3234 14.7247 15.4587 15.1757 15.5956 15.6283Z" fill="#3E4348"/>
<path d="M18.538 29.5386L24.7491 23.3274V24.7497H25.8491V21.9997C25.8491 21.6956 25.6033 21.4497 25.2991 21.4497H22.5491V22.5497H23.9714L17.7603 28.7609L18.538 29.5386Z" fill="#3E4348"/>
<path d="M17.5991 23.65C17.5991 24.5597 18.3394 25.3 19.2491 25.3C20.1588 25.3 20.8991 24.5597 20.8991 23.65C20.8991 22.7403 20.1588 22 19.2491 22C18.3394 22 17.5991 22.7403 17.5991 23.65ZM19.7991 23.65C19.7991 23.9536 19.5527 24.2 19.2491 24.2C18.9455 24.2 18.6991 23.9536 18.6991 23.65C18.6991 23.3464 18.9455 23.1 19.2491 23.1C19.5527 23.1 19.7991 23.3464 19.7991 23.65Z" fill="#3E4348"/>
<path d="M23.6485 26.4001C22.7388 26.4001 21.9985 27.1404 21.9985 28.0501C21.9985 28.9598 22.7388 29.7001 23.6485 29.7001C24.5582 29.7001 25.2985 28.9598 25.2985 28.0501C25.2985 27.1404 24.5582 26.4001 23.6485 26.4001ZM23.6485 28.6001C23.3449 28.6001 23.0985 28.3537 23.0985 28.0501C23.0985 27.7465 23.3449 27.5001 23.6485 27.5001C23.9521 27.5001 24.1985 27.7465 24.1985 28.0501C24.1985 28.3537 23.9521 28.6001 23.6485 28.6001Z" fill="#3E4348"/>
<path d="M21.9989 7.69995V8.79995H20.8989V9.89995H21.9989V11H23.0989V9.89995H24.1989V8.79995H23.0989V7.69995H21.9989Z" fill="#3E4348"/>
<path d="M25.2989 3.8501V5.5001H23.6489V6.6001H25.2989V8.2501H26.3989V6.6001H28.0489V5.5001H26.3989V3.8501H25.2989Z" fill="#3E4348"/>
</svg>
