<?xml version="1.0" encoding="UTF-8" standalone="no" ?>
<!DOCTYPE svg PUBLIC "-//W3C//DTD SVG 1.1//EN" "http://www.w3.org/Graphics/SVG/1.1/DTD/svg11.dtd">
<svg xmlns="http://www.w3.org/2000/svg" xmlns:xlink="http://www.w3.org/1999/xlink" version="1.1" width="40" height="40" viewBox="0 0 40 40" xml:space="preserve">
<desc>Created with Fabric.js 4.6.0</desc>
<defs>
</defs>
<g transform="matrix(1 0 0 1 25.75 13.89)" id="YZbJd8Qwb4ubvEoiiJ0oJ"  >
<path style="stroke: rgb(217,77,30); stroke-width: 2; stroke-dasharray: none; stroke-linecap: butt; stroke-dashoffset: 0; stroke-linejoin: miter; stroke-miterlimit: 4; fill: rgb(217,77,30); fill-opacity: 0; fill-rule: nonzero; opacity: 1;" vector-effect="non-scaling-stroke"  transform=" translate(-10.84, -10.84)" d="M 0 10.8421 C 0 4.85417 4.85417 0 10.8421 0 C 16.83003 0 21.6842 4.85417 21.6842 10.8421 C 21.6842 16.83003 16.83003 21.6842 10.8421 21.6842 C 4.85417 21.6842 0 16.83003 0 10.8421 z" stroke-linecap="round" />
</g>
<g transform="matrix(1 0 0 1 13.43 25.25)" id="lB35HmkTp5I_Fp2Mk-fTY"  >
<path style="stroke: none; stroke-width: 1; stroke-dasharray: none; stroke-linecap: butt; stroke-dashoffset: 0; stroke-linejoin: miter; stroke-miterlimit: 4; fill: rgb(217,77,30); fill-rule: nonzero; opacity: 1;" vector-effect="non-scaling-stroke"  transform=" translate(-11.84, -11.84)" d="M 0 11.8421 C 0 5.30189 5.30189 0 11.8421 0 C 18.38231 0 23.6842 5.30189 23.6842 11.8421 C 23.6842 18.38231 18.38231 23.6842 11.8421 23.6842 C 5.30189 23.6842 0 18.38231 0 11.8421 z" stroke-linecap="round" />
</g>
</svg>