<svg width="24" height="24" viewBox="0 0 24 24" fill="none" xmlns="http://www.w3.org/2000/svg">
<path fill-rule="evenodd" clip-rule="evenodd" d="M12 0C5.37258 0 0 5.37258 0 12C0 18.6274 5.37258 24 12 24C18.6274 24 24 18.6274 24 12C24 5.37258 18.6274 0 12 0ZM7.43488 7.37333C7.734 7.07421 8.21898 7.07421 8.51811 7.37333L11.9999 10.8551L15.4816 7.37337C15.7807 7.07424 16.2657 7.07424 16.5648 7.37337C16.8639 7.67249 16.8639 8.15747 16.5648 8.4566L13.0831 11.9383L16.6264 15.4816C16.9255 15.7807 16.9255 16.2657 16.6264 16.5648C16.3272 16.8639 15.8423 16.8639 15.5431 16.5648L11.9999 13.0215L8.45656 16.5649C8.15743 16.864 7.67246 16.864 7.37333 16.5649C7.07421 16.2657 7.07421 15.7808 7.37333 15.4816L10.9166 11.9383L7.43488 8.45656C7.13575 8.15743 7.13575 7.67246 7.43488 7.37333Z" fill="#C4CBD5"/>
</svg>
