<svg width="25" height="25" viewBox="0 0 17 20" fill="none" xmlns="http://www.w3.org/2000/svg">
<path d="M8.08456 19C6.99217 19 5.91457 18.7631 4.93598 18.3075C3.95739 17.852 3.10433 17.1904 2.44346 16.3742C1.78259 15.5581 1.33183 14.6096 1.1264 13.6029C0.920965 12.5962 0.966435 11.5586 1.25925 10.5711C1.5327 9.74857 1.87145 8.94643 2.27266 8.17141C2.30625 8.11667 2.35741 8.07328 2.41883 8.04743C2.48026 8.02157 2.54881 8.01457 2.61472 8.02743C2.68031 8.04018 2.73998 8.07194 2.7853 8.11823C2.83061 8.16451 2.85929 8.22299 2.86727 8.28539C2.95998 9.04729 3.20934 9.44624 3.61534 9.47024C4.64793 9.52723 6.52129 7.56549 6.78024 6.59061C6.8218 6.43463 6.87295 6.27565 6.92729 6.10768C7.26616 5.05181 7.68815 3.73798 6.07053 1.56926L6.02897 1.54227C5.98151 1.50331 5.94738 1.45206 5.93088 1.39495C5.91438 1.33784 5.91626 1.27742 5.93626 1.22131C5.95329 1.16309 5.98863 1.11104 6.03768 1.07198C6.08673 1.03291 6.14721 1.00864 6.2112 1.00234C6.31669 1.00234 6.42219 1.00234 6.53088 1.00234H6.57564C6.59896 0.999221 6.62264 0.999221 6.64597 1.00234C12.0806 2.16319 11.5084 5.98469 11.1759 8.26739C11.1312 8.56736 11.0896 8.84632 11.0672 9.09829V9.18828C11.0257 9.56923 10.8882 10.7301 11.4285 11.288C11.542 11.4001 11.6806 11.4872 11.8342 11.5432C11.9879 11.5992 12.1528 11.6227 12.3172 11.612C12.5296 11.614 12.7396 11.5704 12.9313 11.4847C13.123 11.3989 13.2913 11.2731 13.4233 11.117C13.8762 10.5412 14.1255 9.84682 14.1362 9.13128C14.1239 9.0678 14.1338 9.00229 14.1643 8.94447C14.1948 8.88665 14.2444 8.83961 14.3057 8.81032C14.365 8.78074 14.4328 8.76945 14.4993 8.77806C14.5659 8.78668 14.6279 8.81476 14.6765 8.85832C15.1049 9.26027 16 10.1002 16 12.1579C15.9872 15.6764 12.1446 19 8.08456 19ZM2.45807 9.23327C2.21831 9.7792 1.96576 10.4331 1.87305 10.7331C1.71835 11.2618 1.63986 11.8076 1.63968 12.3559C1.64222 13.9587 2.32214 15.4951 3.53034 16.6282C4.73853 17.7613 6.37634 18.3985 8.08456 18.4001C11.8185 18.4001 15.3478 15.3675 15.3478 12.1639C15.3478 10.964 15.0282 10.2741 14.7085 9.82419C14.6005 10.4179 14.3441 10.9792 13.9604 11.462C13.7682 11.7 13.5197 11.8929 13.2346 12.0256C12.9495 12.1583 12.6355 12.2272 12.3172 12.2269C12.063 12.238 11.8092 12.197 11.5735 12.1069C11.3377 12.0168 11.1257 11.8796 10.9521 11.7049C10.2201 10.94 10.3799 9.57822 10.4343 9.13128V9.05029C10.4598 8.79233 10.5046 8.50436 10.5493 8.1954C10.869 5.9187 11.3326 2.8261 6.93049 1.69225C8.33072 3.83397 7.88955 5.23479 7.54429 6.27565C7.49314 6.43463 7.44519 6.57561 7.40682 6.73159C7.11591 7.83245 5.07631 10.1751 3.57058 10.0672C3.31793 10.0473 3.07727 9.95743 2.87919 9.80895C2.6811 9.66047 2.53452 9.46009 2.45807 9.23327Z" fill="#7F8893" stroke="#7F8893" stroke-width="0.7"/>
</svg>
