<svg width="55" height="55" viewBox="0 0 30 34" fill="none" xmlns="http://www.w3.org/2000/svg">
<path d="M13.1577 3.26568C13.2549 3.06012 13.3521 2.86011 13.4521 2.66455C13.4794 2.61343 13.5421 2.47621 13.6244 2.2962C13.7622 1.99452 14.1133 1.22338 14.2616 0.994482C14.3927 0.892812 14.4772 0.733917 14.4772 0.555577C14.4772 0.248343 14.2288 0 13.9216 0C13.6999 0 13.1794 0 10.7037 1.97063C5.88352 5.803 0.727217 12.2494 0.0733027 18.0118C-0.237265 20.7519 0.439984 23.1875 2.08671 25.2526C4.12124 27.8033 6.88523 28.8633 9.58089 28.8633C11.4015 28.8633 13.1905 28.3783 14.7033 27.5438C15.5928 30.8945 18.6901 33.3346 22.2219 33.3346C26.511 33.3346 30 29.8456 30 25.5565C30 21.2675 26.511 17.7785 22.2219 17.7785C21.3741 17.7785 20.5458 17.9162 19.7491 18.1835C19.6057 17.0218 19.2679 15.8928 18.9357 14.795C18.8085 14.3755 18.6823 13.9578 18.5696 13.545C18.2684 12.4271 18.1368 11.5132 18.1551 10.6682C18.1662 10.1854 18.2257 9.72593 18.3323 9.30369C18.3901 9.07757 18.4918 8.84978 18.599 8.6081C18.7096 8.36143 18.8235 8.10586 18.9012 7.82696C18.9435 7.67307 18.9179 7.50862 18.8307 7.37472C18.7435 7.24083 18.6029 7.15138 18.4446 7.1286C17.1912 6.95026 15.9378 7.67251 15.1844 8.4081C14.5889 8.98756 14.285 9.71037 13.9916 10.4093C13.9377 10.5365 13.8849 10.6637 13.8322 10.7837C13.8116 10.8293 13.7705 10.9115 13.7199 11.011C13.7077 10.9965 13.6949 10.9815 13.6822 10.9665C13.4021 10.6437 12.9788 10.1554 12.9182 10.072C11.8215 8.41865 11.8465 6.25302 13.011 3.59236C13.0571 3.48402 13.1044 3.37568 13.1577 3.26568ZM9.43033 27.5983C8.6253 27.5866 7.8836 27.246 7.34302 26.6399C5.15572 24.1887 5.54907 20.4824 6.84023 18.0762C7.25747 17.2973 7.81638 16.5245 8.3564 15.7778C8.49696 15.5839 8.63918 15.3873 8.7803 15.1884C9.26476 16.1289 9.76145 16.994 10.4943 17.8857L10.7132 18.1507C11.4926 19.0935 12.2993 20.0691 12.7021 21.2014C13.3321 22.9692 12.9082 25.3976 11.7576 26.6138C11.1632 27.2427 10.302 27.591 9.43033 27.5983ZM28.8888 25.5565C28.8888 29.2328 25.8982 32.2234 22.2219 32.2234C18.9607 32.2234 16.1272 29.7989 15.6322 26.5827C15.5811 26.2521 15.555 25.9071 15.555 25.5565C15.555 25.3926 15.5611 25.2298 15.5728 25.0682C15.6083 24.5826 15.6967 24.1081 15.8333 23.6515C16.3339 21.9758 17.4823 20.5386 19.0501 19.6907C19.1924 19.6141 19.3379 19.5419 19.4868 19.4746C20.3546 19.0863 21.2747 18.8896 22.2219 18.8896C25.8982 18.8896 28.8888 21.8803 28.8888 25.5565ZM12.466 2.15175C12.3577 2.36287 12.2549 2.57399 12.1538 2.78733C12.096 2.90678 12.0443 3.02678 11.9732 3.18901C10.6854 6.13301 10.6909 8.72533 11.9943 10.6899C12.0638 10.7932 12.2665 11.0304 12.841 11.6938C13.0794 11.9688 13.296 12.2182 13.3627 12.3027C13.4366 12.4132 13.5494 12.4977 13.6849 12.5327C13.9283 12.5966 14.1855 12.4888 14.31 12.2682C14.4161 12.0799 14.7522 11.4427 14.8461 11.236C14.9033 11.1054 14.9589 10.9726 15.015 10.8399C15.2772 10.2159 15.525 9.62592 15.9589 9.20424C16.3411 8.83145 16.9195 8.43643 17.5284 8.28087C17.4245 8.51588 17.3234 8.76033 17.2545 9.03145C17.1273 9.53481 17.0562 10.0776 17.0428 10.6448C17.0223 11.5988 17.1662 12.6127 17.4956 13.8372C17.6123 14.2622 17.7412 14.6889 17.8712 15.1178C18.2195 16.2695 18.5785 17.4568 18.6812 18.6296C18.6535 18.6435 18.6279 18.6602 18.6001 18.6746C18.5229 18.7152 18.4479 18.7585 18.3723 18.8013C18.2873 18.8496 18.2023 18.8985 18.1195 18.9502C18.0462 18.9957 17.9745 19.0435 17.9029 19.0913C17.8218 19.1452 17.7418 19.2002 17.6629 19.2574C17.5934 19.308 17.5256 19.3596 17.4579 19.4118C17.3812 19.4713 17.3056 19.5319 17.2312 19.5941C17.1662 19.6485 17.1023 19.7041 17.0395 19.7608C16.9673 19.8258 16.8962 19.8919 16.8262 19.9591C16.7656 20.0174 16.7062 20.0769 16.6478 20.1369C16.58 20.2063 16.5145 20.2774 16.4495 20.3491C16.3934 20.4113 16.3378 20.4741 16.2839 20.5386C16.2217 20.6124 16.1611 20.688 16.1017 20.7641C16.05 20.8297 15.9989 20.8958 15.95 20.9636C15.8922 21.0419 15.8372 21.1225 15.7828 21.203C15.7367 21.2714 15.69 21.3397 15.6461 21.4097C15.5939 21.4925 15.5444 21.5775 15.495 21.6625C15.4539 21.7336 15.4122 21.8042 15.3733 21.8764C15.3267 21.9636 15.2828 22.0525 15.2394 22.1414C15.2039 22.2147 15.1672 22.287 15.1339 22.3614C15.0928 22.4525 15.0555 22.5453 15.0178 22.6381C14.9872 22.7131 14.9555 22.787 14.9278 22.8631C14.8922 22.9587 14.8616 23.0559 14.83 23.1525C14.8055 23.2281 14.7794 23.3026 14.7566 23.3792C14.7272 23.4798 14.7027 23.582 14.6772 23.6842C14.6583 23.7592 14.6377 23.8331 14.6211 23.9087C14.5977 24.0165 14.58 24.1259 14.5611 24.2348C14.5489 24.3065 14.5339 24.377 14.5233 24.4493C14.5055 24.572 14.4944 24.6965 14.4822 24.8204C14.4766 24.8798 14.4677 24.9393 14.4633 24.9993C14.4511 25.1832 14.4439 25.3693 14.4439 25.5565C14.4439 25.8071 14.4594 26.0543 14.4822 26.2988C14.485 26.3282 14.4839 26.3582 14.4866 26.3877C13.9349 26.7227 13.3333 26.9971 12.7043 27.2155C14.0283 25.6643 14.4911 22.9131 13.7488 20.8291C13.2799 19.5124 12.4104 18.4601 11.5687 17.4429L11.3521 17.1807C10.4859 16.1267 9.95979 15.0728 9.34977 13.8522C9.26088 13.6744 9.08365 13.5577 8.88531 13.5461C8.6903 13.535 8.49696 13.6294 8.38751 13.7961C8.09972 14.2355 7.78693 14.6678 7.45525 15.1267C6.89301 15.9028 6.31187 16.7062 5.85963 17.5507C4.43791 20.2008 4.00623 24.2609 6.29076 27.1033C5.06516 26.5932 3.91678 25.766 2.95508 24.5598C1.49947 22.7342 0.901112 20.573 1.17723 18.1374C1.79504 12.691 6.75411 6.53025 11.4082 2.82955C11.8571 2.47232 12.2393 2.18397 12.5599 1.9523C12.5171 2.04619 12.4849 2.1173 12.466 2.15175Z" fill="#3E4348"/>
<path d="M15.7546 15.7872C16.0119 16.6366 16.2547 17.4389 16.3908 18.2045L17.4847 18.0111C17.338 17.1805 17.0741 16.3083 16.8186 15.4649C16.6836 15.0182 16.5491 14.5732 16.4286 14.1299C16.3052 13.6799 16.208 13.2621 16.1308 12.8521L15.0391 13.0571C15.1213 13.4971 15.2257 13.9438 15.3563 14.4221C15.4796 14.8744 15.6163 15.3299 15.7546 15.7872Z" fill="#3E4348"/>
<path d="M18.7265 29.8379L25.0006 23.5637V25.0005H26.1118V22.2226C26.1118 21.9153 25.8634 21.667 25.5562 21.667H22.7783V22.7781H24.215L17.9409 29.0523L18.7265 29.8379Z" fill="#3E4348"/>
<path d="M17.7783 23.8896C17.7783 24.8086 18.5261 25.5564 19.4451 25.5564C20.364 25.5564 21.1118 24.8086 21.1118 23.8896C21.1118 22.9707 20.364 22.2229 19.4451 22.2229C18.5261 22.2229 17.7783 22.9707 17.7783 23.8896ZM20.0006 23.8896C20.0006 24.1963 19.7517 24.4452 19.4451 24.4452C19.1384 24.4452 18.8895 24.1963 18.8895 23.8896C18.8895 23.583 19.1384 23.3341 19.4451 23.3341C19.7517 23.3341 20.0006 23.583 20.0006 23.8896Z" fill="#3E4348"/>
<path d="M23.8884 26.6677C22.9695 26.6677 22.2217 27.4155 22.2217 28.3345C22.2217 29.2534 22.9695 30.0012 23.8884 30.0012C24.8073 30.0012 25.5551 29.2534 25.5551 28.3345C25.5551 27.4155 24.8073 26.6677 23.8884 26.6677ZM23.8884 28.89C23.5817 28.89 23.3328 28.6411 23.3328 28.3345C23.3328 28.0278 23.5817 27.7789 23.8884 27.7789C24.1951 27.7789 24.444 28.0278 24.444 28.3345C24.444 28.6411 24.1951 28.89 23.8884 28.89Z" fill="#3E4348"/>
<path d="M22.2215 7.77808V8.88923H21.1104V10.0004H22.2215V11.1115H23.3327V10.0004H24.4438V8.88923H23.3327V7.77808H22.2215Z" fill="#3E4348"/>
<path d="M25.5559 3.88916V5.55589H23.8892V6.66704H25.5559V8.33377H26.667V6.66704H28.3338V5.55589H26.667V3.88916H25.5559Z" fill="#3E4348"/>
</svg>
