<svg width="25" height="25" viewBox="0 0 19 20" fill="none" xmlns="http://www.w3.org/2000/svg">
<path fill-rule="evenodd" clip-rule="evenodd" d="M9.28989 0.5C4.15674 0.5 0 4.66604 0 9.79919C0 14.9323 4.15674 19.0984 9.28989 19.0984C14.4323 19.0984 18.5984 14.9323 18.5984 9.79919C18.5984 4.66604 14.4323 0.5 9.28989 0.5ZM4.64985 7.47425C4.64985 6.70388 5.27436 6.07937 6.04473 6.07937C6.8151 6.07937 7.43961 6.70388 7.43961 7.47425C7.43961 8.24462 6.8151 8.86913 6.04473 8.86913C5.27436 8.86913 4.64985 8.24462 4.64985 7.47425ZM12.554 6.07937C11.7837 6.07937 11.1592 6.70388 11.1592 7.47425C11.1592 8.24462 11.7837 8.86913 12.554 8.86913C13.3244 8.86913 13.9489 8.24462 13.9489 7.47425C13.9489 6.70388 13.3244 6.07937 12.554 6.07937ZM7.20674 13.0538H11.3914C11.7726 13.0538 12.0888 12.7377 12.0888 12.3564C12.0888 11.9751 11.7726 11.659 11.3914 11.659H7.20674C6.82547 11.659 6.5093 11.9751 6.5093 12.3564C6.5093 12.7377 6.82547 13.0538 7.20674 13.0538ZM1.85994 9.79909C1.85994 13.9093 5.18905 17.2384 9.29929 17.2384C13.4095 17.2384 16.7386 13.9093 16.7386 9.79909C16.7386 5.68884 13.4095 2.35973 9.29929 2.35973C5.18905 2.35973 1.85994 5.68884 1.85994 9.79909Z" fill="#7F8893"/>
</svg>
