<svg width="24" height="20" viewBox="0 0 19 16" fill="none" xmlns="http://www.w3.org/2000/svg">
<path fill-rule="evenodd" clip-rule="evenodd" d="M18.4091 6.2305C18.4091 6.40941 18.2713 6.57838 18.1335 6.7076L14.2868 10.2262L15.1981 15.196C15.2087 15.2655 15.2087 15.3252 15.2087 15.3948C15.2087 15.6532 15.0815 15.8917 14.7742 15.8917C14.6259 15.8917 14.4775 15.842 14.3503 15.7725L9.59222 13.4267L4.8341 15.7725C4.69634 15.842 4.55857 15.8917 4.41021 15.8917C4.1029 15.8917 3.96513 15.6532 3.96513 15.3948C3.96513 15.3252 3.97573 15.2655 3.98633 15.196L4.89768 10.2262L1.04032 6.7076C0.913154 6.57838 0.775391 6.40941 0.775391 6.2305C0.775391 5.93231 1.1039 5.81304 1.36883 5.77328L6.6886 5.04769L9.07296 0.525197C9.16834 0.336346 9.34849 0.117676 9.59222 0.117676C9.83596 0.117676 10.0161 0.336346 10.1115 0.525197L12.4958 5.04769L17.8156 5.77328C18.0699 5.81304 18.4091 5.93231 18.4091 6.2305Z" fill="url(#paint0_linear_4_4946)"/>
<defs>
<linearGradient id="paint0_linear_4_4946" x1="10.6982" y1="23.2841" x2="25.2869" y2="5.88427" gradientUnits="userSpaceOnUse">
<stop stop-color="#FFC726"/>
<stop offset="1" stop-color="#F99716"/>
</linearGradient>
</defs>
</svg>
