<svg width="24" height="20" viewBox="0 0 18 16" fill="none" xmlns="http://www.w3.org/2000/svg">
<path fill-rule="evenodd" clip-rule="evenodd" d="M17.9999 6.23062C17.9999 6.40953 17.8621 6.57851 17.7243 6.70772L13.8776 10.2263L14.7889 15.1961C14.7995 15.2657 14.7995 15.3253 14.7995 15.3949C14.7995 15.6533 14.6724 15.8919 14.3651 15.8919C14.2167 15.8919 14.0683 15.8422 13.9412 15.7726L9.18304 13.4269L4.42492 15.7726C4.28716 15.8422 4.1494 15.8919 4.00103 15.8919C3.69372 15.8919 3.55595 15.6533 3.55595 15.3949C3.55595 15.3253 3.56655 15.2657 3.57715 15.1961L4.4885 10.2263L0.63114 6.70772C0.503974 6.57851 0.366211 6.40953 0.366211 6.23062C0.366211 5.93243 0.694723 5.81316 0.959652 5.7734L6.27942 5.04781L8.66378 0.525319C8.75916 0.336468 8.93931 0.117798 9.18304 0.117798C9.42678 0.117798 9.60693 0.336468 9.7023 0.525319L12.0867 5.04781L17.4064 5.7734C17.6608 5.81316 17.9999 5.93243 17.9999 6.23062Z" fill="#E6E9EF"/>
</svg>
