<svg width="23" height="15" viewBox="0 0 23 15" fill="none" xmlns="http://www.w3.org/2000/svg">
<path d="M11.1115 0C6.1165 0 1.85081 3.11 0.122559 7.5C1.85081 11.89 6.1165 15 11.1115 15C16.1064 15 20.3721 11.89 22.1003 7.5C20.3721 3.11 16.1064 0 11.1115 0ZM11.1115 12.5C8.35424 12.5 6.1165 10.26 6.1165 7.5C6.1165 4.74 8.35424 2.5 11.1115 2.5C13.8687 2.5 16.1064 4.74 16.1064 7.5C16.1064 10.26 13.8687 12.5 11.1115 12.5ZM11.1115 4.5C9.45313 4.5 8.11448 5.84 8.11448 7.5C8.11448 9.16 9.45313 10.5 11.1115 10.5C12.7698 10.5 14.1084 9.16 14.1084 7.5C14.1084 5.84 12.7698 4.5 11.1115 4.5Z" fill="#C4CBD5"/>
</svg>
