<svg width="24" height="24" viewBox="0 0 24 24" fill="none" xmlns="http://www.w3.org/2000/svg">
    <path fill-rule="evenodd" clip-rule="evenodd" d="M12.5 22.5C9.1865 22.5 6.5 19.8135 6.5 16.5C6.5 13.1865 9.1865 10.5 12.5 10.5C15.701 10.5 18.5 13.299 18.5 16.5C18.5 19.8135 15.8135 22.5 12.5 22.5ZM8 6C8 3.51525 10.0153 1.5 12.5 1.5C14.9847 1.5 17 3.51525 17 6V10.5105C15.7452 9.56625 14.1912 9 12.5 9C10.8095 9 9.25475 9.56625 8 10.5105V6ZM18.5 12.0142V6C18.5 2.6865 15.8135 0 12.5 0C9.1865 0 6.5 2.6865 6.5 6V12.0142C5.5625 13.266 5 14.8155 5 16.5C5 20.6423 8.3585 24 12.5 24C16.6415 24 20 20.6423 20 16.5C20 14.8155 19.4375 13.266 18.5 12.0142ZM12.5 15C12.0852 15 11.75 15.336 11.75 15.75V18.75C11.75 19.1647 12.0852 19.5 12.5 19.5C12.9148 19.5 13.25 19.1647 13.25 18.75V15.75C13.25 15.336 12.9148 15 12.5 15Z" fill="#7F8893"/>
</svg>