<svg width="16" height="24" viewBox="0 0 16 24" fill="none" xmlns="http://www.w3.org/2000/svg">
<path d="M8.00039 11.7593C9.10797 11.7593 10.1907 11.4169 11.1116 10.7752C12.0325 10.1335 12.7503 9.22153 13.1741 8.15448C13.598 7.08744 13.7089 5.9133 13.4928 4.78053C13.2767 3.64777 12.7434 2.60725 11.9602 1.79057C11.177 0.973895 10.1792 0.41773 9.0929 0.192409C8.0066 -0.0329126 6.88063 0.0827304 5.85736 0.524714C4.8341 0.966697 3.9595 1.71517 3.34416 2.67548C2.72882 3.6358 2.40039 4.76482 2.40039 5.91978C2.40039 7.46853 2.99039 8.95385 4.04059 10.049C5.0908 11.1441 6.51518 11.7593 8.00039 11.7593ZM8.00039 1.74865C8.79152 1.74865 9.56487 1.99328 10.2227 2.45161C10.8805 2.90994 11.3932 3.56138 11.6959 4.32356C11.9987 5.08573 12.0779 5.9244 11.9235 6.73352C11.7692 7.54264 11.3882 8.28586 10.8288 8.86921C10.2694 9.45255 9.55668 9.84981 8.78075 10.0108C8.00483 10.1717 7.20056 10.0891 6.46966 9.77339C5.73875 9.45769 5.11404 8.92307 4.67451 8.23713C4.23499 7.55119 4.00039 6.74475 4.00039 5.91978C4.00039 4.81353 4.42182 3.75258 5.17196 2.97035C5.92211 2.18811 6.93952 1.74865 8.00039 1.74865V1.74865Z" fill="#7F8893"/>
<path d="M8 12.5936C5.87827 12.5936 3.84344 13.4725 2.34315 15.037C0.842855 16.6015 0 18.7234 0 20.9359V22.6043C0 22.8256 0.0842856 23.0378 0.234315 23.1942C0.384344 23.3507 0.587827 23.4385 0.8 23.4385H15.2C15.4122 23.4385 15.6157 23.3507 15.7657 23.1942C15.9157 23.0378 16 22.8256 16 22.6043V20.9359C16 18.7234 15.1571 16.6015 13.6569 15.037C12.1566 13.4725 10.1217 12.5936 8 12.5936ZM14.4 21.7701H1.6V20.9359C1.6 19.1659 2.27428 17.4684 3.47452 16.2168C4.67475 14.9652 6.30261 14.2621 8 14.2621C9.69739 14.2621 11.3253 14.9652 12.5255 16.2168C13.7257 17.4684 14.4 19.1659 14.4 20.9359V21.7701Z" fill="#7F8893"/>
</svg>
