<svg width="25" height="25" viewBox="0 0 19 19" fill="none" xmlns="http://www.w3.org/2000/svg">
<path fill-rule="evenodd" clip-rule="evenodd" d="M9.28989 0C4.15674 0 0 4.16604 0 9.29919C0 14.4323 4.15674 18.5984 9.28989 18.5984C14.4323 18.5984 18.5984 14.4323 18.5984 9.29919C18.5984 4.16604 14.4323 0 9.28989 0ZM9.43215 10.0963C10.0167 10.0963 10.4949 9.61802 10.4949 9.0335V4.78244C10.4949 4.19792 10.0167 3.71967 9.43215 3.71967C8.84763 3.71967 8.36939 4.19792 8.36939 4.78244V9.0335C8.36939 9.61802 8.84763 10.0963 9.43215 10.0963ZM1.85983 9.29909C1.85983 13.4093 5.18894 16.7384 9.29919 16.7384C13.4094 16.7384 16.7385 13.4093 16.7385 9.29909C16.7385 5.18884 13.4094 1.85973 9.29919 1.85973C5.18894 1.85973 1.85983 5.18884 1.85983 9.29909Z" fill="#7F8893"/>
</svg>
