<svg width="25" height="26" viewBox="0 0 25 26" fill="none" xmlns="http://www.w3.org/2000/svg">
<path fill-rule="evenodd" clip-rule="evenodd" d="M23.4844 4.24891H16.3787C16.0354 2.39738 14.4563 1 12.534 1H12.4653C10.5773 1 8.96394 2.39738 8.62067 4.24891H1.51491C1.24029 4.24891 1 4.49345 1 4.77293C1 5.0524 1.24029 5.29694 1.51491 5.29694H3.54022V20.9825C3.54022 23.1834 5.32525 25 7.48787 25H17.4771C19.6397 25 21.4248 23.1834 21.4248 20.9825V5.29694H23.4844C23.759 5.29694 23.9993 5.0524 23.9993 4.77293C23.9993 4.49345 23.759 4.24891 23.4844 4.24891ZM12.4657 2.08295H12.5344C13.8731 2.08295 15.0059 3.02618 15.3149 4.28382H9.68521C9.99416 2.99125 11.127 2.08295 12.4657 2.08295ZM17.5116 23.9519C19.125 23.9519 20.4294 22.6244 20.4294 20.9825H20.3951V5.2969H4.57016V20.9825C4.57016 22.6244 5.8746 23.9519 7.48799 23.9519H17.5116Z" fill="#7F8893"/>
<path d="M16.3787 4.24891L16.1328 4.29448L16.1707 4.49891H16.3787V4.24891ZM8.62067 4.24891V4.49891H8.82858L8.86648 4.29448L8.62067 4.24891ZM3.54022 5.29694H3.79022V5.04694H3.54022V5.29694ZM21.4248 5.29694V5.04694H21.1748V5.29694H21.4248ZM15.3149 4.28382V4.53382H15.6337L15.5577 4.22418L15.3149 4.28382ZM9.68521 4.28382L9.44206 4.22571L9.36842 4.53382H9.68521V4.28382ZM20.4294 20.9825H20.6794V20.7325H20.4294V20.9825ZM20.3951 20.9825H20.1451V21.2325H20.3951V20.9825ZM20.3951 5.2969H20.6451V5.0469H20.3951V5.2969ZM4.57016 5.2969V5.0469H4.32016V5.2969H4.57016ZM16.3787 4.49891H23.4844V3.99891H16.3787V4.49891ZM12.534 1.25C14.3295 1.25 15.8104 2.55515 16.1328 4.29448L16.6245 4.20334C16.2604 2.23961 14.5831 0.75 12.534 0.75V1.25ZM12.4653 1.25H12.534V0.75H12.4653V1.25ZM8.86648 4.29448C9.1887 2.5565 10.7028 1.25 12.4653 1.25V0.75C10.4519 0.75 8.73918 2.23826 8.37486 4.20334L8.86648 4.29448ZM1.51491 4.49891H8.62067V3.99891H1.51491V4.49891ZM1.25 4.77293C1.25 4.62737 1.38248 4.49891 1.51491 4.49891V3.99891C1.09811 3.99891 0.75 4.35953 0.75 4.77293H1.25ZM1.51491 5.04694C1.38248 5.04694 1.25 4.91848 1.25 4.77293H0.75C0.75 5.18632 1.09811 5.54694 1.51491 5.54694V5.04694ZM3.54022 5.04694H1.51491V5.54694H3.54022V5.04694ZM3.79022 20.9825V5.29694H3.29022V20.9825H3.79022ZM7.48787 24.75C5.46743 24.75 3.79022 23.0495 3.79022 20.9825H3.29022C3.29022 23.3173 5.18306 25.25 7.48787 25.25V24.75ZM17.4771 24.75H7.48787V25.25H17.4771V24.75ZM21.1748 20.9825C21.1748 23.0495 19.4976 24.75 17.4771 24.75V25.25C19.7819 25.25 21.6748 23.3173 21.6748 20.9825H21.1748ZM21.1748 5.29694V20.9825H21.6748V5.29694H21.1748ZM23.4844 5.04694H21.4248V5.54694H23.4844V5.04694ZM23.7493 4.77293C23.7493 4.91848 23.6168 5.04694 23.4844 5.04694V5.54694C23.9012 5.54694 24.2493 5.18632 24.2493 4.77293H23.7493ZM23.4844 4.49891C23.6168 4.49891 23.7493 4.62737 23.7493 4.77293H24.2493C24.2493 4.35953 23.9012 3.99891 23.4844 3.99891V4.49891ZM12.5344 1.83295H12.4657V2.33295H12.5344V1.83295ZM15.5577 4.22418C15.2225 2.85969 13.9932 1.83295 12.5344 1.83295V2.33295C13.7531 2.33295 14.7894 3.19267 15.0721 4.34346L15.5577 4.22418ZM9.68521 4.53382H15.3149V4.03382H9.68521V4.53382ZM12.4657 1.83295C11.0099 1.83295 9.77757 2.82198 9.44206 4.22571L9.92836 4.34194C10.2107 3.16051 11.244 2.33295 12.4657 2.33295V1.83295ZM20.1794 20.9825C20.1794 22.4905 18.9828 23.7019 17.5116 23.7019V24.2019C19.2671 24.2019 20.6794 22.7583 20.6794 20.9825H20.1794ZM20.3951 21.2325H20.4294V20.7325H20.3951V21.2325ZM20.1451 5.2969V20.9825H20.6451V5.2969H20.1451ZM4.57016 5.5469H20.3951V5.0469H4.57016V5.5469ZM4.82016 20.9825V5.2969H4.32016V20.9825H4.82016ZM7.48799 23.7019C6.01679 23.7019 4.82016 22.4905 4.82016 20.9825H4.32016C4.32016 22.7583 5.73242 24.2019 7.48799 24.2019V23.7019ZM17.5116 23.7019H7.48799V24.2019H17.5116V23.7019Z" fill="#7F8893"/>
<path d="M9.37624 19.4453C9.65086 19.4453 9.89115 19.2008 9.89115 18.9213V10.4322C9.89115 10.1527 9.65086 9.9082 9.37624 9.9082C9.10162 9.9082 8.86133 10.1527 8.86133 10.4322V18.9562C8.86133 19.2357 9.06729 19.4453 9.37624 19.4453Z" fill="#7F8893" stroke="#7F8893" stroke-width="0.5"/>
<path d="M15.6243 19.4453C15.8989 19.4453 16.1392 19.2008 16.1392 18.9213V10.4322C16.1392 10.1527 15.8989 9.9082 15.6243 9.9082C15.3497 9.9082 15.1094 10.1527 15.1094 10.4322V18.9562C15.1094 19.2357 15.3497 19.4453 15.6243 19.4453Z" fill="#7F8893" stroke="#7F8893" stroke-width="0.5"/>
</svg>
